# xmcd
#
# Track frame offsets:
#	150
#	6835
#	23485
#	26085
#	43620
#	45445
#	46712
#	47750
#	49072
#	52340
#	59207
#	62730
#	74045
#	78967
#	87805
#	94732
#
# Disc length: 1554 seconds
#
# Revision: 1
# Processed by: cddbd v1.5.1PL0 Copyright (c) Steve Scherf et al.
# Submitted via: CDex 1.50Beta5
#
DISCID=d6061010
DTITLE=笠原弘子 - SeraphimCall
DYEAR=1900
DGENRE=Anime
TTITLE0=佐々木ゆう子/PRAY<TVsize>
TTITLE1=事件発生・セントラルポイント
TTITLE2=セリフ
TTITLE3=天才科学者を探せ
TTITLE4=セリフ
TTITLE5=しっかりしてッ 雪菜
TTITLE6=セリフ
TTITLE7=しっかりしてッ 雪菜
TTITLE8=セリフ
TTITLE9=自分にさよなら
TTITLE10=事件解決!?
TTITLE11=爆発まであと30分
TTITLE12=私ってだめだなぁ
TTITLE13=雪菜ガンバレッ
TTITLE14=笠原弘子/夢みてもいいじゃない<TVsize>
TTITLE15=夢みてもいいじゃない<offvocal>
EXTD=
EXTT0=
EXTT1=
EXTT2=
EXTT3=
EXTT4=
EXTT5=
EXTT6=
EXTT7=
EXTT8=
EXTT9=
EXTT10=
EXTT11=
EXTT12=
EXTT13=
EXTT14=
EXTT15=
PLAYORDER=
